<svg width="3139" height="2277" xmlns="http://www.w3.org/2000/svg" xmlns:xlink="http://www.w3.org/1999/xlink" xml:space="preserve" overflow="hidden"><defs><clipPath id="clip0"><rect x="-4" y="-4" width="3139" height="2277"/></clipPath><clipPath id="clip1"><rect x="0" y="0" width="3132" height="2268"/></clipPath><clipPath id="clip2"><rect x="234" y="56" width="2851" height="2084"/></clipPath><clipPath id="clip3"><rect x="234" y="56" width="2851" height="2084"/></clipPath><clipPath id="clip4"><rect x="234" y="56" width="2851" height="2084"/></clipPath><clipPath id="clip5"><rect x="234" y="56" width="2851" height="2084"/></clipPath><clipPath id="clip6"><rect x="0" y="0" width="3132" height="2268"/></clipPath><clipPath id="clip7"><rect x="0" y="0" width="3132" height="2268"/></clipPath><clipPath id="clip8"><rect x="0" y="0" width="3132" height="2268"/></clipPath><clipPath id="clip9"><rect x="0" y="0" width="3132" height="2268"/></clipPath><clipPath id="clip10"><rect x="0" y="0" width="3132" height="2268"/></clipPath><clipPath id="clip11"><rect x="0" y="0" width="3132" height="2268"/></clipPath><clipPath id="clip12"><rect x="0" y="0" width="3132" height="2268"/></clipPath><clipPath id="clip13"><rect x="0" y="0" width="3132" height="2268"/></clipPath><clipPath id="clip14"><rect x="0" y="0" width="3132" height="2268"/></clipPath><clipPath id="clip15"><rect x="0" y="0" width="3132" height="2268"/></clipPath><clipPath id="clip16"><rect x="0" y="0" width="3132" height="2268"/></clipPath><clipPath id="clip17"><rect x="0" y="0" width="3132" height="2268"/></clipPath><clipPath id="clip18"><rect x="0" y="0" width="3132" height="2268"/></clipPath><clipPath id="clip19"><rect x="0" y="0" width="3132" height="2268"/></clipPath><clipPath id="clip20"><rect x="0" y="0" width="3132" height="2268"/></clipPath></defs><g clip-path="url(#clip0)" transform="translate(4 4)"><rect x="0" y="0" width="3132" height="2269" fill="#FFFFFF" fill-opacity="1"/><g clip-path="url(#clip1)"><path d="M234.5 1928.56 3081.5 1928.56M234.5 1720.56 3081.5 1720.56M234.5 1512.55 3081.5 1512.55M234.5 1304.54 3081.5 1304.54M234.5 1096.54 3081.5 1096.54M234.5 888.529 3081.5 888.529M234.5 680.523 3081.5 680.523M234.5 472.516 3081.5 472.516M234.5 264.509 3081.5 264.509M234.5 56.4999 3081.5 56.4999" stroke="#D9D9D9" stroke-width="3.4375" stroke-linecap="butt" stroke-linejoin="round" stroke-miterlimit="10" stroke-opacity="1" fill="none" fill-rule="nonzero"/></g><g clip-path="url(#clip2)"><path d="M383.013 1278.04 518.017 1278.04 518.017 2137 383.013 2137ZM1332.04 1410.05 1467.05 1410.05 1467.05 2137 1332.04 2137ZM2281.07 1279.04 2417.08 1279.04 2417.08 2137 2281.07 2137Z" fill="#BDD7EE" fill-rule="nonzero" fill-opacity="1"/></g><g clip-path="url(#clip3)"><path d="M555.018 1331.04 690.023 1331.04 690.023 2137 555.018 2137ZM1504.05 746.024 1640.05 746.024 1640.05 2137 1504.05 2137ZM2453.08 1302.04 2589.08 1302.04 2589.08 2137 2453.08 2137Z" fill="#B4C7E7" fill-rule="nonzero" fill-opacity="1"/></g><g clip-path="url(#clip4)"><path d="M727.024 1140.04 863.028 1140.04 863.028 2137 727.024 2137ZM1676.05 745.024 1812.06 745.024 1812.06 2137 1676.05 2137ZM2626.09 1303.04 2761.09 1303.04 2761.09 2137 2626.09 2137Z" fill="#8FAADC" fill-rule="nonzero" fill-opacity="1"/></g><g clip-path="url(#clip5)"><path d="M899.029 783.026 1035.03 783.026 1035.03 2137 899.029 2137ZM1848.06 237.008 1984.07 237.008 1984.07 2137 1848.06 2137ZM2798.09 966.032 2933.1 966.032 2933.1 2137 2798.09 2137Z" fill="#C55A11" fill-rule="nonzero" fill-opacity="1"/></g><g clip-path="url(#clip6)"><path d="M234.5 2137.5 3081.5 2137.5" stroke="#D9D9D9" stroke-width="3.4375" stroke-linecap="butt" stroke-linejoin="round" stroke-miterlimit="10" stroke-opacity="1" fill="none" fill-rule="evenodd"/></g><g clip-path="url(#clip7)"><text fill="#595959" fill-opacity="1" font-family="Calibri,Calibri_MSFontService,sans-serif" font-style="normal" font-variant="normal" font-weight="400" font-stretch="normal" font-size="55" text-anchor="start" direction="ltr" writing-mode="lr-tb" unicode-bidi="normal" text-decoration="none" transform="matrix(1 0 0 1 29.7917 2152)">0.0000</text></g><g clip-path="url(#clip8)"><text fill="#595959" fill-opacity="1" font-family="Calibri,Calibri_MSFontService,sans-serif" font-style="normal" font-variant="normal" font-weight="400" font-stretch="normal" font-size="55" text-anchor="start" direction="ltr" writing-mode="lr-tb" unicode-bidi="normal" text-decoration="none" transform="matrix(1 0 0 1 29.7917 1944)">0.0100</text></g><g clip-path="url(#clip9)"><text fill="#595959" fill-opacity="1" font-family="Calibri,Calibri_MSFontService,sans-serif" font-style="normal" font-variant="normal" font-weight="400" font-stretch="normal" font-size="55" text-anchor="start" direction="ltr" writing-mode="lr-tb" unicode-bidi="normal" text-decoration="none" transform="matrix(1 0 0 1 29.7917 1736)">0.0200</text></g><g clip-path="url(#clip10)"><text fill="#595959" fill-opacity="1" font-family="Calibri,Calibri_MSFontService,sans-serif" font-style="normal" font-variant="normal" font-weight="400" font-stretch="normal" font-size="55" text-anchor="start" direction="ltr" writing-mode="lr-tb" unicode-bidi="normal" text-decoration="none" transform="matrix(1 0 0 1 29.7917 1528)">0.0300</text></g><g clip-path="url(#clip11)"><text fill="#595959" fill-opacity="1" font-family="Calibri,Calibri_MSFontService,sans-serif" font-style="normal" font-variant="normal" font-weight="400" font-stretch="normal" font-size="55" text-anchor="start" direction="ltr" writing-mode="lr-tb" unicode-bidi="normal" text-decoration="none" transform="matrix(1 0 0 1 29.7917 1319)">0.0400</text></g><g clip-path="url(#clip12)"><text fill="#595959" fill-opacity="1" font-family="Calibri,Calibri_MSFontService,sans-serif" font-style="normal" font-variant="normal" font-weight="400" font-stretch="normal" font-size="55" text-anchor="start" direction="ltr" writing-mode="lr-tb" unicode-bidi="normal" text-decoration="none" transform="matrix(1 0 0 1 29.7917 1111)">0.0500</text></g><g clip-path="url(#clip13)"><text fill="#595959" fill-opacity="1" font-family="Calibri,Calibri_MSFontService,sans-serif" font-style="normal" font-variant="normal" font-weight="400" font-stretch="normal" font-size="55" text-anchor="start" direction="ltr" writing-mode="lr-tb" unicode-bidi="normal" text-decoration="none" transform="matrix(1 0 0 1 29.7917 903)">0.0600</text></g><g clip-path="url(#clip14)"><text fill="#595959" fill-opacity="1" font-family="Calibri,Calibri_MSFontService,sans-serif" font-style="normal" font-variant="normal" font-weight="400" font-stretch="normal" font-size="55" text-anchor="start" direction="ltr" writing-mode="lr-tb" unicode-bidi="normal" text-decoration="none" transform="matrix(1 0 0 1 29.7917 695)">0.0700</text></g><g clip-path="url(#clip15)"><text fill="#595959" fill-opacity="1" font-family="Calibri,Calibri_MSFontService,sans-serif" font-style="normal" font-variant="normal" font-weight="400" font-stretch="normal" font-size="55" text-anchor="start" direction="ltr" writing-mode="lr-tb" unicode-bidi="normal" text-decoration="none" transform="matrix(1 0 0 1 29.7917 487)">0.0800</text></g><g clip-path="url(#clip16)"><text fill="#595959" fill-opacity="1" font-family="Calibri,Calibri_MSFontService,sans-serif" font-style="normal" font-variant="normal" font-weight="400" font-stretch="normal" font-size="55" text-anchor="start" direction="ltr" writing-mode="lr-tb" unicode-bidi="normal" text-decoration="none" transform="matrix(1 0 0 1 29.7917 279)">0.0900</text></g><g clip-path="url(#clip17)"><text fill="#595959" fill-opacity="1" font-family="Calibri,Calibri_MSFontService,sans-serif" font-style="normal" font-variant="normal" font-weight="400" font-stretch="normal" font-size="55" text-anchor="start" direction="ltr" writing-mode="lr-tb" unicode-bidi="normal" text-decoration="none" transform="matrix(1 0 0 1 29.7917 71)">0.1000</text></g><g clip-path="url(#clip18)"><text fill="#595959" fill-opacity="1" font-family="Calibri,Calibri_MSFontService,sans-serif" font-style="normal" font-variant="normal" font-weight="400" font-stretch="normal" font-size="55" text-anchor="start" direction="ltr" writing-mode="lr-tb" unicode-bidi="normal" text-decoration="none" transform="matrix(1 0 0 1 546.911 2224)">First 8 Months</text></g><g clip-path="url(#clip19)"><text fill="#595959" fill-opacity="1" font-family="Calibri,Calibri_MSFontService,sans-serif" font-style="normal" font-variant="normal" font-weight="400" font-stretch="normal" font-size="55" text-anchor="start" direction="ltr" writing-mode="lr-tb" unicode-bidi="normal" text-decoration="none" transform="matrix(1 0 0 1 1486.09 2224)">Last 10 Months</text></g><g clip-path="url(#clip20)"><text fill="#595959" fill-opacity="1" font-family="Calibri,Calibri_MSFontService,sans-serif" font-style="normal" font-variant="normal" font-weight="400" font-stretch="normal" font-size="55" text-anchor="start" direction="ltr" writing-mode="lr-tb" unicode-bidi="normal" text-decoration="none" transform="matrix(1 0 0 1 2485.64 2224)">All Months</text></g><rect x="0.499836" y="0.499836" width="3132" height="2269" stroke="#D9D9D9" stroke-width="3.4375" stroke-linecap="butt" stroke-linejoin="round" stroke-miterlimit="10" stroke-opacity="1" fill="none"/></g></svg>