<svg width="3139" height="2277" xmlns="http://www.w3.org/2000/svg" xmlns:xlink="http://www.w3.org/1999/xlink" xml:space="preserve" overflow="hidden"><defs><clipPath id="clip0"><rect x="-4" y="-4" width="3139" height="2277"/></clipPath><clipPath id="clip1"><rect x="0" y="0" width="3131" height="2270"/></clipPath><clipPath id="clip2"><rect x="195" y="50" width="2889" height="2173"/></clipPath><clipPath id="clip3"><rect x="195" y="50" width="2889" height="2173"/></clipPath><clipPath id="clip4"><rect x="195" y="50" width="2889" height="2173"/></clipPath><clipPath id="clip5"><rect x="195" y="50" width="2889" height="2173"/></clipPath><clipPath id="clip6"><rect x="195" y="50" width="2889" height="2173"/></clipPath><clipPath id="clip7"><rect x="195" y="50" width="2889" height="2173"/></clipPath><clipPath id="clip8"><rect x="195" y="50" width="2889" height="2173"/></clipPath><clipPath id="clip9"><rect x="195" y="50" width="2889" height="2173"/></clipPath><clipPath id="clip10"><rect x="0" y="0" width="3131" height="2270"/></clipPath><clipPath id="clip11"><rect x="0" y="0" width="3131" height="2270"/></clipPath><clipPath id="clip12"><rect x="0" y="0" width="3131" height="2270"/></clipPath><clipPath id="clip13"><rect x="0" y="0" width="3131" height="2270"/></clipPath><clipPath id="clip14"><rect x="0" y="0" width="3131" height="2270"/></clipPath><clipPath id="clip15"><rect x="0" y="0" width="3131" height="2270"/></clipPath><clipPath id="clip16"><rect x="0" y="0" width="3131" height="2270"/></clipPath><clipPath id="clip17"><rect x="0" y="0" width="3131" height="2270"/></clipPath><clipPath id="clip18"><rect x="0" y="0" width="3131" height="2270"/></clipPath><clipPath id="clip19"><rect x="0" y="0" width="3131" height="2270"/></clipPath><clipPath id="clip20"><rect x="0" y="0" width="3131" height="2270"/></clipPath><clipPath id="clip21"><rect x="0" y="0" width="3131" height="2270"/></clipPath><clipPath id="clip22"><rect x="0" y="0" width="3131" height="2270"/></clipPath><clipPath id="clip23"><rect x="0" y="0" width="3131" height="2270"/></clipPath></defs><g clip-path="url(#clip0)" transform="translate(4 4)"><rect x="0" y="0" width="3131" height="2271" fill="#FFFFFF" fill-opacity="1"/><g clip-path="url(#clip1)"><path d="M195.5 2220.5 3080.5 2220.5M195.5 1738.56 3080.5 1738.56M195.5 1496.55 3080.5 1496.55M195.5 1255.54 3080.5 1255.54M195.5 1014.53 3080.5 1014.53M195.5 773.526 3080.5 773.526M195.5 532.518 3080.5 532.518M195.5 291.51 3080.5 291.51M195.5 50.5 3080.5 50.5" stroke="#D9D9D9" stroke-width="3.4375" stroke-linecap="butt" stroke-linejoin="round" stroke-miterlimit="10" stroke-opacity="1" fill="none" fill-rule="nonzero"/></g><g clip-path="url(#clip2)"><path d="M283.009 1977.06 362.012 1977.06 362.012 1979.06 283.009 1979.06ZM1245.04 1968.06 1324.04 1968.06 1324.04 1979.06 1245.04 1979.06ZM2206.07 1978.06 2286.07 1978.06 2286.07 1979.06 2206.07 1979.06Z" fill="#DAE3F3" fill-rule="nonzero" fill-opacity="1"/></g><g clip-path="url(#clip3)"><path d="M384.013 1920.06 463.015 1920.06 463.015 1979.06 384.013 1979.06ZM1346.04 1787.06 1425.05 1787.06 1425.05 1979.06 1346.04 1979.06ZM2307.08 1959.06 2387.08 1959.06 2387.08 1979.06 2307.08 1979.06Z" fill="#D6DCE5" fill-rule="nonzero" fill-opacity="1"/></g><g clip-path="url(#clip4)"><path d="M485.016 1978.06 565.019 1978.06 565.019 1979.06 485.016 1979.06ZM1447.05 474.016 1526.05 474.016 1526.05 1979.06 1447.05 1979.06ZM2408.08 1978.06 2488.08 1978.06 2488.08 1979.06 2408.08 1979.06Z" fill="#F4B183" fill-rule="nonzero" fill-opacity="1"/></g><g clip-path="url(#clip5)"><path d="M586.019 834.027 666.022 834.027 666.022 1979.06 586.019 1979.06ZM1548.05 1029.03 1627.05 1029.03 1627.05 1979.06 1548.05 1979.06ZM2510.08 230.008 2589.08 230.008 2589.08 1979.06 2510.08 1979.06Z" fill="#C55A11" fill-rule="nonzero" fill-opacity="1"/></g><g clip-path="url(#clip6)"><path d="M687.023 1650.05 767.025 1650.05 767.025 1979.06 687.023 1979.06ZM1649.05 1960.06 1729.06 1960.06 1729.06 1979.06 1649.05 1979.06ZM2611.09 1979.06 2690.09 1979.06 2690.09 1980.06 2611.09 1980.06Z" fill="#5B9BD5" fill-rule="nonzero" fill-opacity="1"/></g><g clip-path="url(#clip7)"><path d="M788.026 429.014 868.029 429.014 868.029 1979.06 788.026 1979.06ZM1750.06 1141.04 1830.06 1141.04 1830.06 1979.06 1750.06 1979.06ZM2712.09 1170.04 2791.09 1170.04 2791.09 1979.06 2712.09 1979.06Z" fill="#203864" fill-rule="nonzero" fill-opacity="1"/></g><g clip-path="url(#clip8)"><path d="M889.029 1928.06 969.032 1928.06 969.032 1979.06 889.029 1979.06ZM1851.06 1485.05 1931.06 1485.05 1931.06 1979.06 1851.06 1979.06ZM2813.09 1843.06 2893.09 1843.06 2893.09 1979.06 2813.09 1979.06Z" fill="#8497B0" fill-rule="nonzero" fill-opacity="1"/></g><g clip-path="url(#clip9)"><path d="M991.033 1978.06 1070.04 1978.06 1070.04 1979.06 991.033 1979.06ZM1952.06 1584.05 2032.07 1584.05 2032.07 1979.06 1952.06 1979.06ZM2914.1 1978.06 2994.1 1978.06 2994.1 1979.06 2914.1 1979.06Z" fill="#8FAADC" fill-rule="nonzero" fill-opacity="1"/></g><g clip-path="url(#clip10)"><path d="M195.5 1979.5 3080.5 1979.5" stroke="#D9D9D9" stroke-width="3.4375" stroke-linecap="butt" stroke-linejoin="round" stroke-miterlimit="10" stroke-opacity="1" fill="none" fill-rule="evenodd"/></g><g clip-path="url(#clip11)"><text fill="#595959" fill-opacity="1" font-family="Calibri,Calibri_MSFontService,sans-serif" font-style="normal" font-variant="normal" font-weight="400" font-stretch="normal" font-size="41" text-anchor="start" direction="ltr" writing-mode="lr-tb" unicode-bidi="normal" text-decoration="none" transform="matrix(1 0 0 1 29.7917 2230)">-0.0050</text></g><g clip-path="url(#clip12)"><text fill="#595959" fill-opacity="1" font-family="Calibri,Calibri_MSFontService,sans-serif" font-style="normal" font-variant="normal" font-weight="400" font-stretch="normal" font-size="41" text-anchor="start" direction="ltr" writing-mode="lr-tb" unicode-bidi="normal" text-decoration="none" transform="matrix(1 0 0 1 42.4189 1989)">0.0000</text></g><g clip-path="url(#clip13)"><text fill="#595959" fill-opacity="1" font-family="Calibri,Calibri_MSFontService,sans-serif" font-style="normal" font-variant="normal" font-weight="400" font-stretch="normal" font-size="41" text-anchor="start" direction="ltr" writing-mode="lr-tb" unicode-bidi="normal" text-decoration="none" transform="matrix(1 0 0 1 42.4189 1748)">0.0050</text></g><g clip-path="url(#clip14)"><text fill="#595959" fill-opacity="1" font-family="Calibri,Calibri_MSFontService,sans-serif" font-style="normal" font-variant="normal" font-weight="400" font-stretch="normal" font-size="41" text-anchor="start" direction="ltr" writing-mode="lr-tb" unicode-bidi="normal" text-decoration="none" transform="matrix(1 0 0 1 42.4189 1507)">0.0100</text></g><g clip-path="url(#clip15)"><text fill="#595959" fill-opacity="1" font-family="Calibri,Calibri_MSFontService,sans-serif" font-style="normal" font-variant="normal" font-weight="400" font-stretch="normal" font-size="41" text-anchor="start" direction="ltr" writing-mode="lr-tb" unicode-bidi="normal" text-decoration="none" transform="matrix(1 0 0 1 42.4189 1266)">0.0150</text></g><g clip-path="url(#clip16)"><text fill="#595959" fill-opacity="1" font-family="Calibri,Calibri_MSFontService,sans-serif" font-style="normal" font-variant="normal" font-weight="400" font-stretch="normal" font-size="41" text-anchor="start" direction="ltr" writing-mode="lr-tb" unicode-bidi="normal" text-decoration="none" transform="matrix(1 0 0 1 42.4189 1025)">0.0200</text></g><g clip-path="url(#clip17)"><text fill="#595959" fill-opacity="1" font-family="Calibri,Calibri_MSFontService,sans-serif" font-style="normal" font-variant="normal" font-weight="400" font-stretch="normal" font-size="41" text-anchor="start" direction="ltr" writing-mode="lr-tb" unicode-bidi="normal" text-decoration="none" transform="matrix(1 0 0 1 42.4189 784)">0.0250</text></g><g clip-path="url(#clip18)"><text fill="#595959" fill-opacity="1" font-family="Calibri,Calibri_MSFontService,sans-serif" font-style="normal" font-variant="normal" font-weight="400" font-stretch="normal" font-size="41" text-anchor="start" direction="ltr" writing-mode="lr-tb" unicode-bidi="normal" text-decoration="none" transform="matrix(1 0 0 1 42.4189 543)">0.0300</text></g><g clip-path="url(#clip19)"><text fill="#595959" fill-opacity="1" font-family="Calibri,Calibri_MSFontService,sans-serif" font-style="normal" font-variant="normal" font-weight="400" font-stretch="normal" font-size="41" text-anchor="start" direction="ltr" writing-mode="lr-tb" unicode-bidi="normal" text-decoration="none" transform="matrix(1 0 0 1 42.4189 302)">0.0350</text></g><g clip-path="url(#clip20)"><text fill="#595959" fill-opacity="1" font-family="Calibri,Calibri_MSFontService,sans-serif" font-style="normal" font-variant="normal" font-weight="400" font-stretch="normal" font-size="41" text-anchor="start" direction="ltr" writing-mode="lr-tb" unicode-bidi="normal" text-decoration="none" transform="matrix(1 0 0 1 42.4189 60)">0.0400</text></g><g clip-path="url(#clip21)"><text fill="#595959" fill-opacity="1" font-family="Calibri,Calibri_MSFontService,sans-serif" font-style="normal" font-variant="normal" font-weight="400" font-stretch="normal" font-size="41" text-anchor="start" direction="ltr" writing-mode="lr-tb" unicode-bidi="normal" text-decoration="none" transform="matrix(1 0 0 1 555.161 2044)">First 8 Months</text></g><g clip-path="url(#clip22)"><text fill="#595959" fill-opacity="1" font-family="Calibri,Calibri_MSFontService,sans-serif" font-style="normal" font-variant="normal" font-weight="400" font-stretch="normal" font-size="41" text-anchor="start" direction="ltr" writing-mode="lr-tb" unicode-bidi="normal" text-decoration="none" transform="matrix(1 0 0 1 1509.35 2044)">Last 10 Months</text></g><g clip-path="url(#clip23)"><text fill="#595959" fill-opacity="1" font-family="Calibri,Calibri_MSFontService,sans-serif" font-style="normal" font-variant="normal" font-weight="400" font-stretch="normal" font-size="41" text-anchor="start" direction="ltr" writing-mode="lr-tb" unicode-bidi="normal" text-decoration="none" transform="matrix(1 0 0 1 2508.82 2044)">All Months</text></g><rect x="0.499836" y="0.499836" width="3131" height="2271" stroke="#D9D9D9" stroke-width="3.4375" stroke-linecap="butt" stroke-linejoin="round" stroke-miterlimit="10" stroke-opacity="1" fill="none"/></g></svg>